STARTFONT 2.1
COMMENT
COMMENT Converted from OpenType font "VENDETTA.TTF" by "otf2bdf 3.0".
COMMENT
FONT -FreeType-Vendetta-Medium-R-Normal--10-100-75-75-P-41-ISO10646-1
SIZE 10 75 75
FONTBOUNDINGBOX 9 11 -1 -2
STARTPROPERTIES 19
FOUNDRY "FreeType"
FAMILY_NAME "Vendetta"
WEIGHT_NAME "Medium"
SLANT "R"
SETWIDTH_NAME "Normal"
ADD_STYLE_NAME ""
PIXEL_SIZE 10
POINT_SIZE 100
RESOLUTION_X 75
RESOLUTION_Y 75
SPACING "P"
AVERAGE_WIDTH 41
CHARSET_REGISTRY "ISO10646"
CHARSET_ENCODING "1"
FONT_ASCENT 8
FONT_DESCENT 2
COPYRIGHT "Copyright 2004. Tomoyuki Watanabe (Teawat) Vendetta"
_OTF_FONTFILE "VENDETTA.TTF"
_OTF_PSNAME "Vendetta"
ENDPROPERTIES
CHARS 103
STARTCHAR 0020
ENCODING 32
SWIDTH 384 0
DWIDTH 4 0
BBX 0 0 0 0
BITMAP
ENDCHAR
STARTCHAR 0021
ENCODING 33
SWIDTH 192 0
DWIDTH 2 0
BBX 1 8 0 0
BITMAP
80
80
80
80
80
80
00
80
ENDCHAR
STARTCHAR 0022
ENCODING 34
SWIDTH 192 0
DWIDTH 2 0
BBX 2 1 0 6
BITMAP
C0
ENDCHAR
STARTCHAR 0023
ENCODING 35
SWIDTH 768 0
DWIDTH 8 0
BBX 7 7 0 0
BITMAP
14
14
7E
28
FE
58
50
ENDCHAR
STARTCHAR 0024
ENCODING 36
SWIDTH 384 0
DWIDTH 4 0
BBX 4 9 0 -1
BITMAP
20
F0
A0
A0
60
30
30
70
20
ENDCHAR
STARTCHAR 0025
ENCODING 37
SWIDTH 768 0
DWIDTH 8 0
BBX 8 8 0 0
BITMAP
E4
A8
A8
F0
16
29
29
46
ENDCHAR
STARTCHAR 0026
ENCODING 38
SWIDTH 672 0
DWIDTH 7 0
BBX 6 8 0 0
BITMAP
70
90
90
68
F8
98
88
74
ENDCHAR
STARTCHAR 0027
ENCODING 39
SWIDTH 96 0
DWIDTH 1 0
BBX 1 1 0 6
BITMAP
80
ENDCHAR
STARTCHAR 0028
ENCODING 40
SWIDTH 192 0
DWIDTH 2 0
BBX 1 7 0 0
BITMAP
80
80
80
80
80
80
80
ENDCHAR
STARTCHAR 0029
ENCODING 41
SWIDTH 192 0
DWIDTH 2 0
BBX 2 7 0 0
BITMAP
80
80
40
40
40
80
80
ENDCHAR
STARTCHAR 002A
ENCODING 42
SWIDTH 288 0
DWIDTH 3 0
BBX 2 1 0 7
BITMAP
C0
ENDCHAR
STARTCHAR 002B
ENCODING 43
SWIDTH 480 0
DWIDTH 5 0
BBX 5 6 0 1
BITMAP
20
20
20
F8
20
20
ENDCHAR
STARTCHAR 002C
ENCODING 44
SWIDTH 96 0
DWIDTH 1 0
BBX 1 1 0 -1
BITMAP
80
ENDCHAR
STARTCHAR 002D
ENCODING 45
SWIDTH 288 0
DWIDTH 3 0
BBX 2 1 0 3
BITMAP
C0
ENDCHAR
STARTCHAR 002E
ENCODING 46
SWIDTH 96 0
DWIDTH 1 0
BBX 1 1 0 0
BITMAP
80
ENDCHAR
STARTCHAR 002F
ENCODING 47
SWIDTH 480 0
DWIDTH 5 0
BBX 4 7 0 1
BITMAP
10
20
20
40
40
80
80
ENDCHAR
STARTCHAR 0030
ENCODING 48
SWIDTH 480 0
DWIDTH 5 0
BBX 4 8 0 0
BITMAP
60
90
90
90
90
90
90
60
ENDCHAR
STARTCHAR 0031
ENCODING 49
SWIDTH 192 0
DWIDTH 2 0
BBX 1 8 0 0
BITMAP
80
80
80
80
80
80
80
80
ENDCHAR
STARTCHAR 0032
ENCODING 50
SWIDTH 480 0
DWIDTH 5 0
BBX 6 8 -1 0
BITMAP
38
48
08
08
10
20
44
F8
ENDCHAR
STARTCHAR 0033
ENCODING 51
SWIDTH 384 0
DWIDTH 4 0
BBX 4 8 0 0
BITMAP
60
10
30
40
30
10
90
60
ENDCHAR
STARTCHAR 0034
ENCODING 52
SWIDTH 480 0
DWIDTH 5 0
BBX 5 7 0 1
BITMAP
10
30
50
F8
10
10
10
ENDCHAR
STARTCHAR 0035
ENCODING 53
SWIDTH 384 0
DWIDTH 4 0
BBX 4 8 0 0
BITMAP
F0
80
80
E0
10
10
90
60
ENDCHAR
STARTCHAR 0036
ENCODING 54
SWIDTH 480 0
DWIDTH 5 0
BBX 5 8 0 0
BITMAP
70
40
B0
C8
88
88
88
70
ENDCHAR
STARTCHAR 0037
ENCODING 55
SWIDTH 480 0
DWIDTH 5 0
BBX 4 8 0 0
BITMAP
F0
10
20
20
20
40
40
40
ENDCHAR
STARTCHAR 0038
ENCODING 56
SWIDTH 384 0
DWIDTH 4 0
BBX 4 8 0 0
BITMAP
60
90
90
60
90
90
90
60
ENDCHAR
STARTCHAR 0039
ENCODING 57
SWIDTH 480 0
DWIDTH 5 0
BBX 4 8 0 0
BITMAP
60
90
90
90
70
10
30
60
ENDCHAR
STARTCHAR 003A
ENCODING 58
SWIDTH 96 0
DWIDTH 1 0
BBX 1 5 0 0
BITMAP
80
00
00
00
80
ENDCHAR
STARTCHAR 003B
ENCODING 59
SWIDTH 96 0
DWIDTH 1 0
BBX 1 6 0 -1
BITMAP
80
00
00
00
80
80
ENDCHAR
STARTCHAR 003C
ENCODING 60
SWIDTH 576 0
DWIDTH 6 0
BBX 5 5 0 2
BITMAP
38
40
C0
20
18
ENDCHAR
STARTCHAR 003D
ENCODING 61
SWIDTH 384 0
DWIDTH 4 0
BBX 4 2 0 3
BITMAP
F0
F0
ENDCHAR
STARTCHAR 003E
ENCODING 62
SWIDTH 576 0
DWIDTH 6 0
BBX 4 5 1 2
BITMAP
C0
30
10
60
80
ENDCHAR
STARTCHAR 003F
ENCODING 63
SWIDTH 288 0
DWIDTH 3 0
BBX 3 8 0 0
BITMAP
E0
20
20
40
40
00
00
40
ENDCHAR
STARTCHAR 0040
ENCODING 64
SWIDTH 672 0
DWIDTH 7 0
BBX 7 8 0 0
BITMAP
38
46
BA
D2
D6
FC
40
3C
ENDCHAR
STARTCHAR 0041
ENCODING 65
SWIDTH 576 0
DWIDTH 6 0
BBX 6 7 0 1
BITMAP
10
30
30
48
78
48
84
ENDCHAR
STARTCHAR 0042
ENCODING 66
SWIDTH 576 0
DWIDTH 6 0
BBX 4 8 1 0
BITMAP
C0
A0
A0
C0
B0
90
90
A0
ENDCHAR
STARTCHAR 0043
ENCODING 67
SWIDTH 576 0
DWIDTH 6 0
BBX 6 8 0 0
BITMAP
38
44
80
80
80
80
44
38
ENDCHAR
STARTCHAR 0044
ENCODING 68
SWIDTH 672 0
DWIDTH 7 0
BBX 5 8 1 0
BITMAP
E0
90
88
88
88
88
88
90
ENDCHAR
STARTCHAR 0045
ENCODING 69
SWIDTH 480 0
DWIDTH 5 0
BBX 3 8 1 0
BITMAP
E0
80
80
E0
80
80
80
E0
ENDCHAR
STARTCHAR 0046
ENCODING 70
SWIDTH 480 0
DWIDTH 5 0
BBX 3 8 1 0
BITMAP
E0
80
80
E0
80
80
80
80
ENDCHAR
STARTCHAR 0047
ENCODING 71
SWIDTH 576 0
DWIDTH 6 0
BBX 6 8 0 0
BITMAP
38
44
80
80
80
84
44
38
ENDCHAR
STARTCHAR 0048
ENCODING 72
SWIDTH 576 0
DWIDTH 6 0
BBX 5 8 0 0
BITMAP
88
88
88
88
B8
88
88
88
ENDCHAR
STARTCHAR 0049
ENCODING 73
SWIDTH 192 0
DWIDTH 2 0
BBX 1 8 0 0
BITMAP
80
80
80
80
80
80
80
80
ENDCHAR
STARTCHAR 004A
ENCODING 74
SWIDTH 288 0
DWIDTH 3 0
BBX 2 9 0 -1
BITMAP
40
40
40
40
40
40
40
40
80
ENDCHAR
STARTCHAR 004B
ENCODING 75
SWIDTH 384 0
DWIDTH 4 0
BBX 5 8 0 0
BITMAP
80
90
A0
C0
A0
B0
90
88
ENDCHAR
STARTCHAR 004C
ENCODING 76
SWIDTH 480 0
DWIDTH 5 0
BBX 4 8 1 0
BITMAP
80
80
80
80
80
80
80
F0
ENDCHAR
STARTCHAR 004D
ENCODING 77
SWIDTH 672 0
DWIDTH 7 0
BBX 6 8 1 0
BITMAP
C0
CC
CC
B4
B4
B4
A4
84
ENDCHAR
STARTCHAR 004E
ENCODING 78
SWIDTH 672 0
DWIDTH 7 0
BBX 6 8 0 1
BITMAP
C0
A4
A4
94
94
8C
8C
84
ENDCHAR
STARTCHAR 004F
ENCODING 79
SWIDTH 672 0
DWIDTH 7 0
BBX 6 8 0 0
BITMAP
38
48
84
84
84
84
48
78
ENDCHAR
STARTCHAR 0050
ENCODING 80
SWIDTH 480 0
DWIDTH 5 0
BBX 4 8 1 0
BITMAP
E0
90
90
80
80
80
80
80
ENDCHAR
STARTCHAR 0051
ENCODING 81
SWIDTH 768 0
DWIDTH 8 0
BBX 7 8 0 0
BITMAP
38
48
84
84
84
84
4A
3C
ENDCHAR
STARTCHAR 0052
ENCODING 82
SWIDTH 480 0
DWIDTH 5 0
BBX 4 8 1 0
BITMAP
E0
90
90
80
A0
A0
A0
90
ENDCHAR
STARTCHAR 0053
ENCODING 83
SWIDTH 480 0
DWIDTH 5 0
BBX 4 8 0 0
BITMAP
70
80
80
80
60
10
90
70
ENDCHAR
STARTCHAR 0054
ENCODING 84
SWIDTH 480 0
DWIDTH 5 0
BBX 5 8 0 0
BITMAP
F8
20
20
20
20
20
20
20
ENDCHAR
STARTCHAR 0055
ENCODING 85
SWIDTH 576 0
DWIDTH 6 0
BBX 4 8 1 0
BITMAP
90
90
90
90
90
90
90
60
ENDCHAR
STARTCHAR 0056
ENCODING 86
SWIDTH 672 0
DWIDTH 7 0
BBX 5 7 1 0
BITMAP
88
88
90
50
60
60
20
ENDCHAR
STARTCHAR 0057
ENCODING 87
SWIDTH 864 0
DWIDTH 9 0
BBX 7 8 1 0
BITMAP
82
82
52
54
74
34
28
20
ENDCHAR
STARTCHAR 0058
ENCODING 88
SWIDTH 672 0
DWIDTH 7 0
BBX 6 8 0 0
BITMAP
44
48
30
10
30
28
48
84
ENDCHAR
STARTCHAR 0059
ENCODING 89
SWIDTH 672 0
DWIDTH 7 0
BBX 4 8 1 0
BITMAP
90
50
60
40
40
40
20
20
ENDCHAR
STARTCHAR 005A
ENCODING 90
SWIDTH 576 0
DWIDTH 6 0
BBX 6 8 0 0
BITMAP
FC
08
18
10
20
20
40
FC
ENDCHAR
STARTCHAR 005B
ENCODING 91
SWIDTH 192 0
DWIDTH 2 0
BBX 1 9 0 -1
BITMAP
80
80
80
80
80
80
80
80
80
ENDCHAR
STARTCHAR 005C
ENCODING 92
SWIDTH 480 0
DWIDTH 5 0
BBX 5 8 0 0
BITMAP
80
80
40
40
20
20
10
18
ENDCHAR
STARTCHAR 005D
ENCODING 93
SWIDTH 192 0
DWIDTH 2 0
BBX 1 9 1 -1
BITMAP
80
80
80
80
80
80
80
80
80
ENDCHAR
STARTCHAR 005E
ENCODING 94
SWIDTH 288 0
DWIDTH 3 0
BBX 1 1 1 7
BITMAP
80
ENDCHAR
STARTCHAR 005F
ENCODING 95
SWIDTH 672 0
DWIDTH 7 0
BBX 0 0 0 -1
BITMAP
ENDCHAR
STARTCHAR 0061
ENCODING 97
SWIDTH 480 0
DWIDTH 5 0
BBX 5 6 0 0
BITMAP
60
10
50
90
90
F8
ENDCHAR
STARTCHAR 0062
ENCODING 98
SWIDTH 480 0
DWIDTH 5 0
BBX 3 7 1 1
BITMAP
80
C0
A0
A0
A0
A0
C0
ENDCHAR
STARTCHAR 0063
ENCODING 99
SWIDTH 480 0
DWIDTH 5 0
BBX 4 6 0 0
BITMAP
60
90
80
80
80
70
ENDCHAR
STARTCHAR 0064
ENCODING 100
SWIDTH 480 0
DWIDTH 5 0
BBX 4 7 0 1
BITMAP
10
70
90
90
90
90
60
ENDCHAR
STARTCHAR 0065
ENCODING 101
SWIDTH 480 0
DWIDTH 5 0
BBX 4 6 0 0
BITMAP
60
90
F0
80
80
70
ENDCHAR
STARTCHAR 0066
ENCODING 102
SWIDTH 288 0
DWIDTH 3 0
BBX 3 8 0 0
BITMAP
60
40
E0
40
40
40
40
40
ENDCHAR
STARTCHAR 0067
ENCODING 103
SWIDTH 480 0
DWIDTH 5 0
BBX 4 7 0 -1
BITMAP
60
50
50
50
F0
80
70
ENDCHAR
STARTCHAR 0068
ENCODING 104
SWIDTH 480 0
DWIDTH 5 0
BBX 4 8 0 0
BITMAP
80
80
F0
90
90
90
90
90
ENDCHAR
STARTCHAR 0069
ENCODING 105
SWIDTH 192 0
DWIDTH 2 0
BBX 3 8 -1 0
BITMAP
E0
00
40
40
40
40
40
40
ENDCHAR
STARTCHAR 006A
ENCODING 106
SWIDTH 288 0
DWIDTH 3 0
BBX 3 10 0 -2
BITMAP
60
00
40
40
40
40
40
40
40
80
ENDCHAR
STARTCHAR 006B
ENCODING 107
SWIDTH 384 0
DWIDTH 4 0
BBX 4 8 0 0
BITMAP
80
80
A0
A0
C0
E0
A0
90
ENDCHAR
STARTCHAR 006C
ENCODING 108
SWIDTH 192 0
DWIDTH 2 0
BBX 1 8 0 0
BITMAP
80
80
80
80
80
80
80
80
ENDCHAR
STARTCHAR 006D
ENCODING 109
SWIDTH 672 0
DWIDTH 7 0
BBX 5 6 1 0
BITMAP
F8
A8
A8
A8
A8
A8
ENDCHAR
STARTCHAR 006E
ENCODING 110
SWIDTH 480 0
DWIDTH 5 0
BBX 5 6 0 0
BITMAP
F8
48
48
48
48
48
ENDCHAR
STARTCHAR 006F
ENCODING 111
SWIDTH 480 0
DWIDTH 5 0
BBX 4 6 0 0
BITMAP
60
90
90
90
90
60
ENDCHAR
STARTCHAR 0070
ENCODING 112
SWIDTH 480 0
DWIDTH 5 0
BBX 3 8 1 -2
BITMAP
E0
A0
A0
A0
C0
80
80
80
ENDCHAR
STARTCHAR 0071
ENCODING 113
SWIDTH 384 0
DWIDTH 4 0
BBX 4 8 0 -2
BITMAP
70
90
90
90
90
70
10
10
ENDCHAR
STARTCHAR 0072
ENCODING 114
SWIDTH 288 0
DWIDTH 3 0
BBX 2 6 1 0
BITMAP
C0
80
80
80
80
80
ENDCHAR
STARTCHAR 0073
ENCODING 115
SWIDTH 384 0
DWIDTH 4 0
BBX 3 6 0 0
BITMAP
E0
80
80
40
20
E0
ENDCHAR
STARTCHAR 0074
ENCODING 116
SWIDTH 288 0
DWIDTH 3 0
BBX 2 8 0 0
BITMAP
40
40
C0
40
40
40
40
40
ENDCHAR
STARTCHAR 0075
ENCODING 117
SWIDTH 480 0
DWIDTH 5 0
BBX 4 6 0 0
BITMAP
90
90
90
90
90
70
ENDCHAR
STARTCHAR 0076
ENCODING 118
SWIDTH 480 0
DWIDTH 5 0
BBX 5 5 0 0
BITMAP
C8
50
60
60
20
ENDCHAR
STARTCHAR 0077
ENCODING 119
SWIDTH 576 0
DWIDTH 6 0
BBX 5 5 1 0
BITMAP
88
90
D0
70
60
ENDCHAR
STARTCHAR 0078
ENCODING 120
SWIDTH 480 0
DWIDTH 5 0
BBX 4 6 0 0
BITMAP
90
60
60
20
60
90
ENDCHAR
STARTCHAR 0079
ENCODING 121
SWIDTH 480 0
DWIDTH 5 0
BBX 5 8 0 -2
BITMAP
C8
50
70
20
20
20
40
40
ENDCHAR
STARTCHAR 007A
ENCODING 122
SWIDTH 384 0
DWIDTH 4 0
BBX 4 6 0 0
BITMAP
F0
10
20
60
40
F0
ENDCHAR
STARTCHAR 007B
ENCODING 123
SWIDTH 480 0
DWIDTH 5 0
BBX 2 9 1 -1
BITMAP
40
40
40
40
80
40
40
40
40
ENDCHAR
STARTCHAR 007C
ENCODING 124
SWIDTH 96 0
DWIDTH 1 0
BBX 1 9 0 -1
BITMAP
80
80
80
80
80
80
80
80
80
ENDCHAR
STARTCHAR 007D
ENCODING 125
SWIDTH 480 0
DWIDTH 5 0
BBX 3 9 1 -1
BITMAP
C0
40
40
40
20
40
40
40
80
ENDCHAR
STARTCHAR 007E
ENCODING 126
SWIDTH 576 0
DWIDTH 6 0
BBX 6 3 0 5
BITMAP
08
94
70
ENDCHAR
STARTCHAR 00A0
ENCODING 160
SWIDTH 384 0
DWIDTH 4 0
BBX 0 0 0 0
BITMAP
ENDCHAR
STARTCHAR 00A5
ENCODING 165
SWIDTH 576 0
DWIDTH 6 0
BBX 6 8 0 0
BITMAP
C4
48
30
30
F8
20
20
20
ENDCHAR
STARTCHAR 2010
ENCODING 8208
SWIDTH 288 0
DWIDTH 3 0
BBX 2 1 0 3
BITMAP
C0
ENDCHAR
STARTCHAR 2013
ENCODING 8211
SWIDTH 384 0
DWIDTH 4 0
BBX 3 1 0 3
BITMAP
E0
ENDCHAR
STARTCHAR 2014
ENCODING 8212
SWIDTH 480 0
DWIDTH 5 0
BBX 5 1 0 3
BITMAP
F8
ENDCHAR
STARTCHAR 2018
ENCODING 8216
SWIDTH 96 0
DWIDTH 1 0
BBX 1 1 0 7
BITMAP
80
ENDCHAR
STARTCHAR 2019
ENCODING 8217
SWIDTH 96 0
DWIDTH 1 0
BBX 1 1 0 7
BITMAP
80
ENDCHAR
STARTCHAR 201C
ENCODING 8220
SWIDTH 288 0
DWIDTH 3 0
BBX 3 1 0 7
BITMAP
A0
ENDCHAR
STARTCHAR 201D
ENCODING 8221
SWIDTH 288 0
DWIDTH 3 0
BBX 3 1 0 6
BITMAP
A0
ENDCHAR
ENDFONT
